<svg width="100%" viewBox="0 0 116 36" fill="none" xmlns="http://www.w3.org/2000/svg">
<path fill-rule="evenodd" clip-rule="evenodd" d="M104.633 4.13428H111.165L115.297 0H108.77L104.633 4.13428ZM98.6719 8.34644H92.1396L96.2764 4.20728H102.804L98.6719 8.34644ZM99.3818 9.15967V15.6946L103.515 11.5554V5.02539L99.3818 9.15967ZM111.866 4.95264V11.4827L115.999 7.34839V0.818359L111.866 4.95264ZM100.28 16.7612H106.812L110.945 12.627H104.418L100.28 16.7612ZM107.518 17.5793V24.1094L111.649 19.9751V13.4451L107.518 17.5793ZM71.6475 18.4016C72.1289 17.9731 72.3721 17.384 72.3721 16.634C72.3721 15.8843 72.1289 15.2949 71.6475 14.8665C71.165 14.438 70.5957 14.2236 69.9385 14.2236C69.2812 14.2236 68.7119 14.438 68.2305 14.8665C67.748 15.2998 67.5049 15.8843 67.5049 16.634C67.5049 17.384 67.748 17.9731 68.2305 18.4016C68.7119 18.8303 69.2812 19.0444 69.9385 19.0444C70.5957 19.0444 71.165 18.8303 71.6475 18.4016Z" fill="#97D28B"></path>
<path fill-rule="evenodd" clip-rule="evenodd" d="M44.8447 21.012V14.6038L48.9238 13.9512V34.7249C48.835 34.7517 48.7441 34.7783 48.6504 34.8044C48.541 34.8347 48.4287 34.8645 48.3125 34.8938C48.1094 34.9448 47.8936 34.9941 47.6631 35.0413C47.1855 35.1387 46.6895 35.2263 46.1689 35.2993C45.6523 35.3726 45.1172 35.4358 44.582 35.4795L44.4512 35.4912C43.6895 35.5605 41.0977 35.7969 38.9746 35.0266C38.0938 34.7053 37.3643 34.1453 36.7461 33.4783C36.1279 32.811 35.6406 32.0076 35.2949 31.0679C34.9502 30.1279 34.7744 29.0906 34.7744 27.9609C34.7744 26.8311 34.9541 25.8037 35.3096 24.8687C35.665 23.9387 36.1562 23.1448 36.7842 22.4875C37.4121 21.8301 38.1621 21.3188 39.0283 20.9536C39.8945 20.5884 40.8242 20.4082 41.8613 20.4082C42.0859 20.4082 42.3066 20.4167 42.5225 20.4336C42.877 20.4612 43.2217 20.5117 43.5557 20.5852C43.959 20.6743 44.3467 20.7969 44.7188 20.9536L44.8447 21.012ZM42.2168 32.1584C44.0957 32.1584 44.8447 31.6619 44.8447 31.6619C44.8447 31.6619 44.957 29.3584 44.8447 27.9609C44.8125 27.5586 44.7734 27.2104 44.7236 26.9021C44.6953 26.73 44.6641 26.5703 44.6289 26.4207C44.4932 25.8394 44.2998 25.4099 44.0078 24.9905C43.5059 24.2698 42.791 23.9094 41.8613 23.9094C40.9316 23.9094 40.2109 24.2698 39.7002 24.9905C39.1943 25.7112 38.9355 26.6997 38.9355 27.9609C38.9355 29.2222 39.1895 30.2205 39.7002 30.9604C40.2109 31.7007 41.2822 32.1584 42.2168 32.1584ZM17.1719 29.5242C17.8145 31.2576 18.4902 33.147 19.2061 35.1921H14.6406C14.6211 35.1294 14.5605 34.9502 14.4668 34.6765C14.2793 34.1333 13.96 33.218 13.5732 32.105L13.1123 30.7805C11.6133 30.6929 10.0898 30.8389 8.67383 31.3354C7.67578 31.6814 5.28125 32.6455 4.56543 34.8027L4.48535 35.0349C4.45996 35.1101 4.44141 35.1628 4.43359 35.1921H0C0.211914 34.5857 0.420898 33.9932 0.625977 33.4143C0.944336 32.5154 1.25488 31.6494 1.55762 30.8164L1.68555 30.4639L1.87598 29.9412L2.0293 29.5242C2.33008 28.7119 2.62793 27.9221 2.92285 27.1543C3.25684 26.2832 3.58691 25.4404 3.91309 24.6252C4.52637 23.0913 5.12988 21.6353 5.72363 20.2573C6.31738 18.8792 6.93555 17.5352 7.57324 16.2205H11.6182C11.7656 16.5298 11.9121 16.8413 12.0586 17.1548C12.2969 17.667 12.5342 18.1846 12.7695 18.7073C13 19.2195 13.2295 19.7363 13.458 20.2573C14.0664 21.6353 14.6748 23.0913 15.2881 24.6252C15.4336 24.989 15.5801 25.3584 15.7275 25.7332C15.8809 26.124 16.0352 26.5208 16.1904 26.9238C16.5137 27.7639 16.8408 28.6304 17.1719 29.5242ZM9.50586 20.5203L6.88184 28.0876C8.43457 27.4546 10.1191 27.1138 11.8076 27.0649C10.6494 23.7439 9.55957 20.647 9.50586 20.5203ZM29.0029 14.6038V21.012L28.876 20.9536C28.7471 20.8992 28.6152 20.8489 28.4824 20.8025C28.376 20.7656 28.2686 20.7314 28.1602 20.7L27.9893 20.6523C27.8799 20.6233 27.7686 20.5969 27.6562 20.573C27.5381 20.5481 27.4189 20.5261 27.2988 20.5068C26.8877 20.4409 26.4609 20.4082 26.0195 20.4082C24.9824 20.4082 24.0527 20.5884 23.1865 20.9536C23.0518 21.0105 22.9199 21.0708 22.79 21.1348C22.6621 21.198 22.5371 21.2646 22.415 21.335C22.2451 21.4321 22.0811 21.5361 21.9229 21.6467C21.5693 21.8938 21.2422 22.1741 20.9424 22.4875C20.6191 22.8259 20.332 23.2007 20.0811 23.6116C19.8447 23.9985 19.6406 24.4175 19.4678 24.8687C19.3262 25.2417 19.2119 25.6296 19.127 26.0327C18.998 26.6399 18.9326 27.282 18.9326 27.9609C18.9326 29.0906 19.1074 30.1279 19.4531 31.0679C19.7988 32.0076 20.2861 32.811 20.9043 33.4783C21.5215 34.1453 22.252 34.7053 23.1328 35.0266C25.2559 35.7969 27.8477 35.5605 28.6094 35.4912L28.7402 35.4795C29.2754 35.4358 29.8105 35.3726 30.3271 35.2993C30.5068 35.2739 30.6846 35.2468 30.8594 35.2183L31.0957 35.1785C31.3428 35.1355 31.584 35.0896 31.8213 35.0413C32.2979 34.9438 32.7119 34.8367 33.082 34.7249V13.9512L29.0029 14.6038ZM29.0029 31.6619C29.0029 31.6619 28.2529 32.1584 26.375 32.1584C25.4404 32.1584 24.3691 31.7007 23.8584 30.9604C23.6855 30.71 23.542 30.4299 23.4277 30.1201C23.3652 29.9497 23.3115 29.7703 23.2666 29.5818C23.2451 29.4937 23.2256 29.4036 23.209 29.3115C23.1963 29.2444 23.1855 29.1763 23.1748 29.1072C23.1533 28.9653 23.1357 28.8191 23.123 28.6685C23.1152 28.5793 23.1094 28.4885 23.1045 28.3962L23.0967 28.1995L23.0938 27.9609C23.0938 26.6997 23.3516 25.7112 23.8584 24.9905C23.9316 24.8875 24.0098 24.7917 24.0918 24.7036C24.1895 24.5977 24.293 24.5022 24.4033 24.4175L24.4951 24.3508L24.543 24.3181L24.5908 24.2871C24.6709 24.2368 24.7549 24.1917 24.8408 24.1514C25.1865 23.99 25.5801 23.9094 26.0195 23.9094C26.9492 23.9094 27.6641 24.2698 28.166 24.9905C28.3877 25.3088 28.5527 25.6331 28.6787 26.0249C28.8379 26.5203 28.9346 27.1238 29.0029 27.9609C29.0449 28.4819 29.0557 29.1287 29.0527 29.7351C29.0469 30.7556 29.0029 31.6619 29.0029 31.6619ZM52.0635 35.1921H56.1426V20.7927H52.0635V35.1921ZM65.5293 13.9512C65.4609 14.6963 65.2227 17.1165 65.1396 17.54C64.7744 17.5547 64.0928 17.9297 63.8984 18.1682C63.709 18.4067 63.5723 18.6892 63.4893 19.0154C63.4072 19.3418 63.3682 19.6973 63.3682 20.082V20.793H71.9873L71.9893 35.1924H67.9102V24.187H63.3682V35.1924H59.2891V20.0283C59.2891 18.1682 59.8145 16.688 60.8613 15.5923C61.9072 14.4966 63.4648 13.9512 65.5293 13.9512ZM102.631 31.0728C102.958 30.1331 103.123 29.0959 103.123 27.9661C103.128 26.8364 102.953 25.804 102.606 24.874C102.262 23.9438 101.774 23.1501 101.156 22.4927C100.926 22.2468 100.677 22.0212 100.41 21.8162C99.9648 21.4731 99.4697 21.1873 98.9268 20.9587C98.0605 20.5935 97.0918 20.4133 96.0703 20.4133C95.5762 20.4133 95.0996 20.4556 94.6416 20.5403C94.1523 20.6309 93.6846 20.77 93.2373 20.9587C92.3711 21.324 91.6211 21.8352 90.9932 22.4927C90.3604 23.1501 89.8691 23.9438 89.5137 24.874C89.1582 25.804 88.9785 26.8364 88.9785 27.9661C88.9785 29.0959 89.1533 30.1331 89.499 31.0728C89.8447 32.0127 90.332 32.8162 90.9502 33.4834C91.5674 34.1504 92.3125 34.6667 93.1787 35.0317C94.0449 35.3923 94.9893 35.5771 96.0654 35.5771C97.1406 35.5771 98.1143 35.397 98.9805 35.0317C99.8467 34.6667 100.592 34.1504 101.21 33.4834C101.828 32.8162 102.305 32.0127 102.631 31.0728ZM98.2168 24.9956C98.7178 25.7163 98.9707 26.7048 98.9707 27.9661C98.9707 29.2273 98.7178 30.2256 98.2168 30.9658C97.7148 31.7058 97 32.0759 96.0703 32.0759C95.1406 32.0759 94.4199 31.7058 93.9092 30.9658C93.6885 30.6465 93.5156 30.2791 93.3906 29.863C93.2852 29.5103 93.2139 29.1226 93.1758 28.7C93.1553 28.4661 93.1445 28.2214 93.1445 27.9661C93.1445 26.7048 93.3975 25.7163 93.9092 24.9956C94.4199 24.2749 95.1406 23.9146 96.0703 23.9146C97 23.9146 97.7148 24.2749 98.2168 24.9956ZM83.6387 30.5432C83.5654 30.6921 83.4844 30.8328 83.3945 30.9653C82.8926 31.7053 82.1777 32.0754 81.248 32.0754C80.3184 32.0754 79.5977 31.7053 79.0869 30.9653C78.8037 30.5547 78.5996 30.0649 78.4736 29.4949C78.373 29.0369 78.3223 28.5273 78.3223 27.9656C78.3223 27.4597 78.3633 26.9978 78.4453 26.5793C78.5674 25.9546 78.7812 25.4268 79.0869 24.9951C79.5977 24.2744 80.3184 23.9141 81.248 23.9141C82.1777 23.9141 82.8926 24.2744 83.3945 24.9951C83.6035 25.2971 83.7695 25.6477 83.8906 26.0471C84.5576 25.7549 85.2344 25.4919 85.9209 25.2385C86.3965 25.0637 86.8652 24.8413 87.3379 24.6167L87.6191 24.4839C87.2881 23.7241 86.8643 23.0571 86.3389 22.4971C85.7207 21.8396 84.9766 21.3284 84.1094 20.9631C83.2432 20.5979 82.2891 20.4177 81.2529 20.4177C80.2158 20.4177 79.2861 20.6028 78.4199 20.9631C77.5537 21.3284 76.8037 21.8396 76.1758 22.4971C75.5488 23.1545 75.0566 23.9482 74.6963 24.8784C74.3408 25.8083 74.1611 26.8408 74.1611 27.9705C74.1611 29.1003 74.3359 30.1375 74.6816 31.0771C75.0273 32.0171 75.5098 32.8206 76.1328 33.4878C76.751 34.1548 77.4951 34.6711 78.3613 35.0361C79.2275 35.4014 80.1914 35.5815 81.248 35.5815C82.3037 35.5815 83.2969 35.3967 84.1631 35.0361C85.0293 34.6711 85.7744 34.1548 86.3926 33.4878C86.6143 33.2517 86.8154 32.9971 86.998 32.7246C87.3008 32.272 87.5527 31.7705 87.7559 31.2234C86.7383 30.9773 85.7393 30.6052 84.7441 30.2344C84.458 30.1279 84.1719 30.0215 83.8857 29.9133C83.8174 30.1375 83.7354 30.3474 83.6387 30.5432Z" fill="currentColor"></path>
</svg>