<svg xmlns="http://www.w3.org/2000/svg" viewBox="0 0 200 50">
  <path fill="#0066B3" d="M37.5 10.4c-4.8 0-8.7 3.9-8.7 8.7 0 4.8 3.9 8.7 8.7 8.7 4.8 0 8.7-3.9 8.7-8.7 0-4.8-3.9-8.7-8.7-8.7zm0 15.4c-3.7 0-6.7-3-6.7-6.7s3-6.7 6.7-6.7 6.7 3 6.7 6.7-3 6.7-6.7 6.7z"/>
  <path fill="#0066B3" d="M73.7 10.4H62.3v17.4h2v-7.4h9.4c3.7 0 6.7-3 6.7-6.7s-3-3.3-6.7-3.3zm0 8H64.3v-6h9.4c2.2 0 4 1.8 4 4s-1.8 2-4 2z"/>
  <path fill="#0066B3" d="M95.7 10.4H84.3v17.4h2v-7.4h9.4c3.7 0 6.7-3 6.7-6.7s-3-3.3-6.7-3.3zm0 8H86.3v-6h9.4c2.2 0 4 1.8 4 4s-1.8 2-4 2z"/>
  <path fill="#0066B3" d="M117.7 10.4h-11.4v17.4h2v-7.4h9.4c3.7 0 6.7-3 6.7-6.7s-3-3.3-6.7-3.3zm0 8h-9.4v-6h9.4c2.2 0 4 1.8 4 4s-1.8 2-4 2z"/>
  <path fill="#0066B3" d="M139.7 10.4h-11.4v17.4h2v-7.4h9.4c3.7 0 6.7-3 6.7-6.7s-3-3.3-6.7-3.3zm0 8h-9.4v-6h9.4c2.2 0 4 1.8 4 4s-1.8 2-4 2z"/>
  <path fill="#0066B3" d="M161.7 10.4h-11.4v17.4h2v-7.4h9.4c3.7 0 6.7-3 6.7-6.7s-3-3.3-6.7-3.3zm0 8h-9.4v-6h9.4c2.2 0 4 1.8 4 4s-1.8 2-4 2z"/>
</svg>