<svg xmlns="http://www.w3.org/2000/svg" viewBox="0 0 80 24">
  <path fill="#404145" d="M67.613 12.872h2.2v6.444h4.432v1.94h-6.631v-8.384zm-1.706 4.409c0 .794-.155 1.493-.465 2.097a3.434 3.434 0 01-1.281 1.435 3.536 3.536 0 01-1.841.518c-.673 0-1.282-.173-1.826-.518a3.434 3.434 0 01-1.282-1.435c-.31-.604-.465-1.303-.465-2.097s.155-1.493.465-2.097a3.434 3.434 0 011.282-1.435 3.536 3.536 0 011.826-.518c.673 0 1.282.173 1.841.518.543.345.976.845 1.281 1.435.31.604.465 1.303.465 2.097zm-2.045 0c0-.483-.095-.897-.279-1.242a1.978 1.978 0 00-.744-.794 2.137 2.137 0 00-1.04-.276c-.371 0-.714.095-1.025.276a1.978 1.978 0 00-.744.794c-.186.345-.279.76-.279 1.242s.093.897.279 1.242c.186.345.433.604.744.794.31.173.654.276 1.025.276.387 0 .73-.095 1.04-.276.31-.19.558-.45.744-.794.186-.345.279-.76.279-1.242zm-6.751-4.409v8.384h-2.076v-.742a3.337 3.337 0 01-1.085.673c-.418.156-.867.242-1.347.242-.657 0-1.252-.173-1.78-.501a3.535 3.535 0 01-1.236-1.401c-.294-.604-.449-1.303-.449-2.097 0-.776.155-1.47.449-2.08a3.535 3.535 0 011.236-1.401c.528-.328 1.123-.501 1.78-.501.48 0 .929.086 1.347.259.418.173.774.397 1.085.673v-.742h2.076v-.766zm-2.076 4.409c0-.483-.093-.897-.279-1.242a1.978 1.978 0 00-.744-.794 2.137 2.137 0 00-1.04-.276c-.371 0-.714.095-1.025.276a1.978 1.978 0 00-.744.794c-.186.345-.279.76-.279 1.242s.093.897.279 1.242c.186.345.433.604.744.794.31.173.654.276 1.025.276.387 0 .73-.095 1.04-.276.31-.19.558-.45.744-.794.186-.345.279-.76.279-1.242zm-8.27-4.409h2.2v8.384h-2.2v-8.384zm-1.378 0v8.384h-2.076v-.742a3.337 3.337 0 01-1.085.673c-.418.156-.867.242-1.347.242-.657 0-1.252-.173-1.78-.501a3.535 3.535 0 01-1.236-1.401c-.294-.604-.449-1.303-.449-2.097 0-.776.155-1.47.449-2.08a3.535 3.535 0 011.236-1.401c.528-.328 1.123-.501 1.78-.501.48 0 .929.086 1.347.259.418.173.774.397 1.085.673v-.742h2.076v-.766zm-2.076 4.409c0-.483-.093-.897-.279-1.242a1.978 1.978 0 00-.744-.794 2.137 2.137 0 00-1.04-.276c-.371 0-.714.095-1.025.276a1.978 1.978 0 00-.744.794c-.186.345-.279.76-.279 1.242s.093.897.279 1.242c.186.345.433.604.744.794.31.173.654.276 1.025.276.387 0 .73-.095 1.04-.276.31-.19.558-.45.744-.794.186-.345.279-.76.279-1.242zm-11.36 4.409c-.657 0-1.252-.173-1.78-.501a3.535 3.535 0 01-1.236-1.401c-.294-.604-.449-1.303-.449-2.097 0-.776.155-1.47.449-2.08a3.535 3.535 0 011.236-1.401c.528-.328 1.123-.501 1.78-.501.48 0 .929.086 1.347.259.418.173.774.397 1.085.673v-4.65h2.2v11.599h-2.2v-.742a3.337 3.337 0 01-1.085.673c-.418.156-.867.242-1.347.242zm.449-1.967c.371 0 .714-.095 1.025-.276.31-.19.558-.45.744-.794.186-.345.279-.76.279-1.242s-.093-.897-.279-1.242a1.978 1.978 0 00-.744-.794 2.137 2.137 0 00-1.025-.276c-.387 0-.73.095-1.04.276-.31.19-.558.45-.744.794-.186.345-.279.76-.279 1.242s.093.897.279 1.242c.186.345.433.604.744.794.31.173.654.276 1.04.276zm-7.741-6.417h2.2v8.384h-2.2v-8.384zm-6.288 0h2.386l2.386 6.158 2.386-6.158h2.386l-3.844 8.384h-1.855l-3.844-8.384zm-2.572 4.409c0 .794-.155 1.493-.465 2.097a3.434 3.434 0 01-1.281 1.435 3.536 3.536 0 01-1.841.518c-.673 0-1.282-.173-1.826-.518a3.434 3.434 0 01-1.282-1.435c-.31-.604-.465-1.303-.465-2.097s.155-1.493.465-2.097a3.434 3.434 0 011.282-1.435 3.536 3.536 0 011.826-.518c.673 0 1.282.173 1.841.518.543.345.976.845 1.281 1.435.31.604.465 1.303.465 2.097zm-2.045 0c0-.483-.095-.897-.279-1.242a1.978 1.978 0 00-.744-.794 2.137 2.137 0 00-1.04-.276c-.371 0-.714.095-1.025.276a1.978 1.978 0 00-.744.794c-.186.345-.279.76-.279 1.242s.093.897.279 1.242c.186.345.433.604.744.794.31.173.654.276 1.025.276.387 0 .73-.095 1.04-.276.31-.19.558-.45.744-.794.186-.345.279-.76.279-1.242zm-8.27-4.409h2.2v8.384h-2.2v-8.384zm-6.875 0h2.386l2.386 6.158 2.386-6.158h2.386l-3.844 8.384h-1.855l-3.844-8.384zm-7.834 4.409c0 .794-.155 1.493-.465 2.097a3.434 3.434 0 01-1.281 1.435 3.536 3.536 0 01-1.841.518c-.673 0-1.282-.173-1.826-.518a3.434 3.434 0 01-1.282-1.435c-.31-.604-.465-1.303-.465-2.097s.155-1.493.465-2.097a3.434 3.434 0 011.282-1.435 3.536 3.536 0 011.826-.518c.673 0 1.282.173 1.841.518.543.345.976.845 1.281 1.435.31.604.465 1.303.465 2.097zm-2.045 0c0-.483-.095-.897-.279-1.242a1.978 1.978 0 00-.744-.794 2.137 2.137 0 00-1.04-.276c-.371 0-.714.095-1.025.276a1.978 1.978 0 00-.744.794c-.186.345-.279.76-.279 1.242s.093.897.279 1.242c.186.345.433.604.744.794.31.173.654.276 1.025.276.387 0 .73-.095 1.04-.276.31-.19.558-.45.744-.794.186-.345.279-.76.279-1.242z"/>
  <path fill="#1dbf73" d="M13.774 3.6c0 1.19-.93 2.16-2.08 2.16-1.15 0-2.08-.97-2.08-2.16 0-1.19.93-2.16 2.08-2.16 1.15 0 2.08.97 2.08 2.16z"/>
  <path fill="#404145" d="M8.154 6h2.2v15.6h-2.2V6z"/>
</svg>