<svg xmlns="http://www.w3.org/2000/svg" viewBox="0 0 129 32">
  <path fill="#2164f3" d="M0 8.6h8.4c6.3 0 9.7 3.6 9.7 9s-3.4 9-9.7 9H0V8.6zm7.9 13.4c3.3 0 4.9-1.8 4.9-4.4s-1.6-4.4-4.9-4.4H4.7v8.8h3.2zm15.4-5.8c.3-2.1 1.5-3.2 3.5-3.2 2.1 0 3.1 1.1 3.3 3.2h-6.8zm11.5 2.1c0-5.3-2.9-8.6-8-8.6-5 0-8.1 3.3-8.1 8.3s3.1 8.3 8.4 8.3c3.8 0 6.5-1.7 7.4-4.6h-4.1c-.6.9-1.7 1.4-3.2 1.4-2.3 0-3.6-1.2-3.9-3.4h11.4c.1-.5.1-.9.1-1.4zm9.7-7c-2.2 0-3.8.9-4.6 2.3V3.5h-4.5v22.9h4.5v-2c.8 1.4 2.4 2.3 4.6 2.3 4.4 0 7.2-3.3 7.2-8.3-.1-4.8-2.9-8.1-7.2-8.1zm-1.4 13c-2.3 0-3.8-1.7-3.8-4.7s1.5-4.7 3.8-4.7 3.8 1.7 3.8 4.7-1.5 4.7-3.8 4.7zm18.4-13c-2.2 0-3.8.9-4.6 2.3v-2h-4.5v15.7h4.5v-8.5c0-2.1 1.1-3.1 2.8-3.1 1.8 0 2.7 1 2.7 3v8.5H67V14.8c0-3.7-2.1-5.5-5.5-5.5zm20.7 0c-2.2 0-3.8.9-4.6 2.3v-2h-4.5v15.7h4.5v-8.5c0-2.1 1.1-3.1 2.8-3.1 1.8 0 2.7 1 2.7 3v8.5h4.5V14.8c0-3.7-2.1-5.5-5.4-5.5zm19.9 7.6c0-5-2.9-8.3-7.5-8.3-4.7 0-7.7 3.3-7.7 8.3s3 8.3 7.7 8.3 7.5-3.3 7.5-8.3zm-10.7 0c0-3 1.3-4.7 3.3-4.7s3.3 1.7 3.3 4.7-1.3 4.7-3.3 4.7-3.3-1.7-3.3-4.7zm24.1-7.3h-5.1l-4.3 9.2-4.3-9.2h-5.1l7 13.8-.9 1.8c-.8 1.6-1.6 2.1-3.1 2.1h-2.2v3.9h3.4c3.2 0 4.8-1.1 6.4-4.5l8.2-17.1z"/>
</svg>