<svg xmlns="http://www.w3.org/2000/svg" viewBox="0 0 512 512">
  <path fill="#6fda44" d="M357.2 296.9c-17 0-33-7.2-47.4-18.9l3.5-16.6.1-.6c3.2-17.6 13.1-47.2 43.8-47.2 23 0 41.7 18.7 41.7 41.7s-18.7 41.6-41.7 41.6zm0-125.5c-40.9 0-72.5 26.5-85.4 70.1-19.7-29.5-34.6-65-43.2-95.1h-44.1v115.1c0 21.7-17.6 39.3-39.3 39.3s-39.3-17.6-39.3-39.3V146.4H61.8v115.1c0 46 37.4 83.6 83.4 83.6s83.4-37.6 83.4-83.6v-19.3c8.4 17.5 18.8 35.1 31.5 50.3l-26.8 126.2h45.2l19.4-91.4c17 12.1 36.5 19.8 59.3 19.8 47.7 0 86.5-39 86.5-86.8s-38.8-86.9-86.5-86.9z"/>
</svg>