<svg xmlns="http://www.w3.org/2000/svg" viewBox="0 0 100 32">
  <path fill="#FF6B6B" d="M14.1 8h-8v16h8c4.4 0 8-3.6 8-8s-3.6-8-8-8zm0 14h-6V10h6c3.3 0 6 2.7 6 6s-2.7 6-6 6z"/>
  <path fill="#FF6B6B" d="M34.1 8h-8v16h8c4.4 0 8-3.6 8-8s-3.6-8-8-8zm0 14h-6V10h6c3.3 0 6 2.7 6 6s-2.7 6-6 6z"/>
  <path fill="#FF6B6B" d="M54.1 8h-8v16h8c4.4 0 8-3.6 8-8s-3.6-8-8-8zm0 14h-6V10h6c3.3 0 6 2.7 6 6s-2.7 6-6 6z"/>
  <path fill="#FF6B6B" d="M74.1 8h-8v16h8c4.4 0 8-3.6 8-8s-3.6-8-8-8zm0 14h-6V10h6c3.3 0 6 2.7 6 6s-2.7 6-6 6z"/>
</svg>